<svg width="118" height="103" viewBox="0 0 118 103" fill="none" xmlns="http://www.w3.org/2000/svg">
<path d="M114.133 88.6328L67.2578 7.1875C63.7422 1.13281 54.5625 0.9375 51.0469 7.1875L4.17188 88.6328C0.65625 94.6875 5.14844 102.5 12.375 102.5H105.93C113.156 102.5 117.648 94.8828 114.133 88.6328ZM59.25 71.6406C64.1328 71.6406 68.2344 75.7422 68.2344 80.625C68.2344 85.7031 64.1328 89.6094 59.25 89.6094C54.1719 89.6094 50.2656 85.7031 50.2656 80.625C50.2656 75.7422 54.1719 71.6406 59.25 71.6406ZM50.6562 39.4141C50.4609 38.0469 51.6328 36.875 53 36.875H65.3047C66.6719 36.875 67.8438 38.0469 67.6484 39.4141L66.2812 65.9766C66.0859 67.3438 65.1094 68.125 63.9375 68.125H54.3672C53.1953 68.125 52.2188 67.3438 52.0234 65.9766L50.6562 39.4141Z" fill="white"/>
</svg>
